Coordinates
version=1
nRows=7
nColumns=40
inDegrees=yes

Units are S.I. units (second, meters, Newtons, ...)
Angles are in degrees.

endheader
time	pelvis_tilt	pelvis_list	pelvis_rotation	pelvis_tx	pelvis_ty	pelvis_tz	hip_flexion_r	hip_adduction_r	hip_rotation_r	knee_angle_r	knee_angle_r_beta	ankle_angle_r	subtalar_angle_r	mtp_angle_r	hip_flexion_l	hip_adduction_l	hip_rotation_l	knee_angle_l	knee_angle_l_beta	ankle_angle_l	subtalar_angle_l	mtp_angle_l	lumbar_extension	lumbar_bending	lumbar_rotation	arm_flex_r	arm_add_r	arm_rot_r	elbow_flex_r	pro_sup_r	wrist_flex_r	wrist_dev_r	arm_flex_l	arm_add_l	arm_rot_l	elbow_flex_l	pro_sup_l	wrist_flex_l	wrist_dev_l
     17.96342857	     -2.70898832	     -3.04587043	     12.84241151	      1.02790682	      0.92133639	      0.51063508	      2.47291473	      4.45767172	    -17.18146943	     16.91523380	     16.91523380	     18.80524900	     -9.34611466	     -1.79362634	     27.08737714	     -4.41396299	      3.16282824	     19.96463897	     19.96463897	      4.57890643	     -3.51205932	      2.62239659	     -8.17997256	      2.34294331	      3.53244510	     60.95635312	    -17.61460133	     -1.92358519	     72.60621820	     44.86283037	      0.00000000	      0.00000000	    -17.51432859	     -8.48294638	     23.51850015	     28.23775664	     42.36881771	      0.00000000	      0.00000000
     17.98685714	     -2.97594450	     -2.98882022	     12.85932300	      1.02953662	      0.92082417	      0.50765751	      2.13751438	      4.27164337	    -17.16460271	     16.67309236	     16.67309236	     18.95457228	     -9.29502559	     -1.77475530	     27.04443139	     -4.17728823	      3.08625753	     20.34213331	     20.34213331	      4.51911611	     -3.77615506	      2.36221698	     -7.82701206	      2.06463906	      3.72104652	     61.71955860	    -17.46986452	     -1.89957570	     73.00831973	     44.85317907	      0.00000000	      0.00000000	    -17.50295400	     -8.62288659	     23.53950313	     28.14320927	     42.37202275	      0.00000000	      0.00000000
     18.01028571	     -2.95291177	     -3.09964735	     12.86769340	      1.03133912	      0.92048851	      0.50447456	      1.41366259	      4.29624927	    -17.45344943	     16.25195856	     16.25195856	     19.15751671	     -8.55212362	     -1.60369556	     26.70940983	     -4.01862581	      3.73757825	     20.62387467	     20.62387467	      2.84064635	     -5.81979863	     -1.56627405	     -7.92968515	      2.09576933	      3.95805584	     62.09009755	    -17.74130771	     -1.53587653	     75.40708549	     44.80399168	      0.00000000	      0.00000000	    -16.93015521	     -8.60918989	     24.35373551	     27.12548748	     42.44219606	      0.00000000	      0.00000000
     18.03371429	     -3.08255953	     -3.09568482	     12.81102468	      1.03311319	      0.92011720	      0.50131075	      0.93968615	      4.17778506	    -17.39395064	     16.01516989	     16.01516989	     19.24838700	     -8.46492610	     -1.54232209	     26.70475667	     -3.84521114	      3.82886860	     21.40472283	     21.40472283	      3.00603152	     -6.41847196	     -1.77582516	     -7.80043456	      1.95401041	      4.08241899	     62.70558110	    -17.53166504	     -1.50127674	     75.69723942	     44.79936607	      0.00000000	      0.00000000	    -16.71181922	     -8.82462756	     24.37245339	     27.11347392	     42.45652251	      0.00000000	      0.00000000
     18.05714286	     -3.16929635	     -3.15085401	     12.75562349	      1.03490984	      0.91985679	      0.49799250	      0.40674882	      4.11755133	    -17.40350621	     15.72817433	     15.72817433	     19.28429637	     -8.24544637	     -1.44774189	     26.68828718	     -3.67831511	      4.17305350	     22.20924984	     22.20924984	      3.24921486	     -7.26470301	     -1.87656744	     -7.72285607	      1.92858755	      4.15454771	     63.19105957	    -17.29748801	     -1.39754813	     76.06558701	     44.79044550	      0.00000000	      0.00000000	    -16.45891957	     -9.00764754	     24.40830637	     27.08694499	     42.47385562	      0.00000000	      0.00000000
     18.08057143	     -3.29051596	     -3.15971780	     12.67017848	      1.03667724	      0.91969312	      0.49454297	     -0.11503217	      3.97481526	    -17.47658405	     15.41428831	     15.41428831	     19.29904278	     -7.89054234	     -1.32975280	     26.63297109	     -3.41698442	      4.62002407	     22.88605231	     22.88605231	      3.53562319	     -8.28147936	     -1.73748167	     -7.63650158	      1.89149343	      4.25063200	     63.53577213	    -17.11050045	     -1.21521818	     76.42432986	     44.78070938	      0.00000000	      0.00000000	    -16.11140367	     -9.24291001	     24.44799894	     27.06044307	     42.49994455	      0.00000000	      0.00000000
     18.10400000	     -3.46572663	     -3.06731548	     12.54175789	      1.03835340	      0.91968637	      0.49098129	     -0.57322647	      3.65727536	    -17.66531636	     15.16655761	     15.16655761	     19.34438193	     -7.25737827	     -1.17734400	     26.51553404	     -3.00280114	      5.12764296	     23.37724023	     23.37724023	      3.93647487	     -9.44181106	     -1.02568020	     -7.53519625	      1.75040632	      4.43245912	     63.70510599	    -17.08507814	     -0.87958285	     76.74260031	     44.77605772	      0.00000000	      0.00000000	    -15.66863405	     -9.52793972	     24.56289024	     27.00991831	     42.55203055	      0.00000000	      0.00000000
